<svg width="64" height="64" viewBox="0 0 64 64" fill="none" xmlns="http://www.w3.org/2000/svg">
<path fill-rule="evenodd" clip-rule="evenodd" d="M30.2676 0.0898238C29.1994 0.284309 27.7569 0.818286 26.7447 1.39398C25.4693 2.11927 23.6186 4.00129 22.9053 5.29819C22.0385 6.8743 21.4944 8.8638 21.4921 10.4657L21.4911 11.1178L19.2709 11.1822C16.8485 11.2526 15.9095 11.4342 14.247 12.1537C11.5604 13.3161 9.11212 15.8058 7.96897 18.5377C7.19132 20.3958 7.07474 21.109 7.0127 24.3856L6.95591 27.3825L5.95023 27.5316C1.8597 28.138 -0.811859 32.2686 0.223593 36.3859C0.68303 38.2122 1.86383 39.9239 3.31869 40.8724L3.97164 41.298L4.00666 50.7478L4.04181 60.1975L4.509 61.1587C5.07163 62.3162 5.796 63.0372 6.95879 63.5974L7.79435 64H31.9983H56.2022L57.0377 63.5974C58.2004 63.0374 58.9249 62.3162 59.4875 61.1587L59.9547 60.1975L60.0173 50.7595L60.0798 41.3213L60.8303 40.7589C64.0191 38.3696 64.9241 34.2036 62.9852 30.8391C62.551 30.0859 61.4221 28.9323 60.695 28.499C59.8638 28.0036 58.6739 27.5886 57.7951 27.4875L57.0409 27.4007L56.9806 24.3947C56.9167 21.1997 56.8271 20.5846 56.184 18.9248C55.0475 15.991 52.5543 13.3672 49.7496 12.1537C48.0871 11.4342 47.148 11.2526 44.7257 11.1822L42.5054 11.1178L42.5044 10.4657C42.5009 7.98601 41.4033 5.25469 39.6516 3.36644C38.229 1.83307 36.737 0.913811 34.7284 0.33328C33.6699 0.0273696 31.3158 -0.1011 30.2676 0.0898238ZM34.5625 2.42123C35.9025 2.85841 36.9883 3.5332 37.988 4.54963C38.9743 5.55259 39.6381 6.64853 40.098 8.03295L40.436 9.05053L40.4773 14.6326L40.5185 20.2147L40.1048 19.9333C39.8772 19.7787 39.2663 19.4418 38.7472 19.1848L37.8036 18.7176L38.0879 18.2088C38.8268 16.8866 38.9147 16.3888 38.9727 13.2014L39.0268 10.2291L37.2277 8.39966C35.6272 6.77216 35.3822 6.57017 35.0089 6.57017C34.6693 6.57017 34.5033 6.6732 34.1386 7.11076C31.7071 10.0279 30.0503 10.8762 27.0774 10.7265C25.6327 10.6537 25.589 10.6595 25.295 10.9584C25.002 11.2563 24.9935 11.3213 24.9935 13.2637C24.9935 15.7125 25.1315 16.5684 25.723 17.7917L26.1818 18.7405L25.2437 19.1953C24.7277 19.4455 24.1226 19.7751 23.899 19.9277L23.4925 20.2053V15.036C23.4925 9.35797 23.5589 8.65622 24.242 7.1245C25.3863 4.55828 27.4997 2.83285 30.3096 2.17116C31.4364 1.9057 33.3229 2.01662 34.5625 2.42123ZM36.9788 13.5095L36.9391 15.9333L36.4719 16.8941C35.9093 18.0513 35.1847 18.7725 34.0221 19.3326C33.2665 19.6966 33.0729 19.7351 31.9983 19.7351C30.9237 19.7351 30.73 19.6966 29.9744 19.3326C28.8154 18.7743 28.0869 18.0507 27.5297 16.9044C27.0868 15.993 27.0657 15.8891 27.0163 14.3783L26.9647 12.8029L27.8866 12.802C30.269 12.7997 33.0487 11.5096 34.5866 9.69263L35.0628 9.1299L36.0406 10.1078L37.0183 11.0857L36.9788 13.5095ZM21.4911 17.7542V22.3238L20.9883 23.3811C20.574 24.2523 20.4033 24.4805 20.0189 24.6769C19.1385 25.1267 18.5383 25.8914 18.3101 26.8539C18.2608 27.0614 18.2888 27.8168 18.3723 28.5327L18.524 29.8341L17.3184 32.0507C15.9185 34.6248 15.7558 34.9919 15.6093 35.9075C15.3501 37.5262 15.9277 39.1224 17.2404 40.4155C18.4824 41.639 18.4447 41.6768 15.9829 41.6768H14.0038L13.9598 37.3839C13.9164 33.14 13.9123 33.0813 13.5972 32.2489C13.1308 31.0168 12.6752 30.2923 11.8417 29.4579C11.1481 28.7635 9.58757 27.8122 9.14214 27.8122C8.87321 27.8122 8.97891 21.9578 9.26623 20.9416C10.0465 18.1816 11.5107 16.1409 13.7122 14.7457C15.4948 13.6159 17.0493 13.2142 19.7087 13.1964L21.4911 13.1845V17.7542ZM47.3856 13.4773C50.0315 14.2337 51.9744 15.6507 53.4013 17.8645C53.9987 18.7913 54.3568 19.6203 54.7303 20.9416C55.0176 21.9578 55.1233 27.8122 54.8544 27.8122C54.4121 27.8122 52.8803 28.7485 52.1703 29.4528C51.3191 30.297 50.8694 31.0073 50.3994 32.2489C50.0843 33.0813 50.0802 33.14 50.0368 37.3839L49.9927 41.6768H48.0136C45.5568 41.6768 45.5177 41.6384 46.738 40.4268C48.0575 39.1167 48.612 37.6104 48.3849 35.9529C48.2582 35.0274 48.0983 34.6619 46.6781 32.0507L45.4725 29.8341L45.6243 28.5327C45.7077 27.8168 45.7357 27.0614 45.6864 26.8539C45.4583 25.8914 44.858 25.1267 43.9776 24.6769C43.5933 24.4805 43.4225 24.2523 43.0082 23.3811L42.5054 22.3238V17.7394V13.1551L44.6006 13.2175C45.9347 13.2573 46.9463 13.3516 47.3856 13.4773ZM28.3121 20.7471C28.9678 21.1997 30.0518 21.5897 31.0914 21.7472C32.5947 21.9748 34.5155 21.5538 35.6989 20.7372C36.1321 20.4383 36.2079 20.4255 36.7402 20.5613C37.7542 20.8199 38.8659 21.4496 39.686 22.2298C40.3805 22.8903 41.2545 24.0404 41.2545 24.2937C41.2545 24.34 37.0892 24.3779 31.9983 24.3779C26.9073 24.3779 22.742 24.3339 22.742 24.2802C22.742 23.8534 24.3641 22.0292 25.2717 21.4351C25.8208 21.0758 27.365 20.4435 27.7086 20.4374C27.7915 20.4359 28.0631 20.5753 28.3121 20.7471ZM43.2668 26.5761C43.7981 26.991 43.7989 26.974 42.9448 33.9042C42.4968 37.5403 42.1301 40.5478 42.1301 40.5873C42.1301 40.6269 37.5708 40.6592 31.9983 40.6592C26.4257 40.6592 21.8664 40.6269 21.8664 40.5873C21.8664 40.5478 21.4999 37.5412 21.0518 33.9059C20.3037 27.8347 20.2526 27.2667 20.4238 26.9298C20.5264 26.7282 20.6818 26.534 20.7693 26.4981C20.8567 26.4624 25.9098 26.4305 31.9983 26.4272C40.5157 26.4224 43.1141 26.4569 43.2668 26.5761ZM9.03632 29.9517C10.1647 30.4886 10.8952 31.2192 11.455 32.3705L11.9222 33.3312L11.9609 37.6127L11.9996 41.894L11.6126 42.0571C11.0907 42.2769 10.3111 43.2014 10.1304 43.8146C9.9293 44.4971 9.93318 49.0429 10.1354 49.7391C10.3385 50.4378 11.3747 51.4915 12.0617 51.6979C12.4281 51.808 14.0103 51.8526 17.5475 51.8526C22.5167 51.8526 22.5183 51.8527 22.8636 52.1388C23.0535 52.2963 23.3092 52.4849 23.432 52.558C23.6196 52.6698 23.7403 53.3566 24.1918 56.8828C24.487 59.1882 24.7607 61.2892 24.8 61.5514L24.8714 62.0284H16.7227C10.6903 62.0284 8.44017 61.9882 8.05903 61.8738C7.37194 61.6673 6.33574 60.6136 6.13273 59.9149C6.01927 59.5243 5.98062 56.978 5.98062 49.8897C5.98062 43.765 5.93597 40.3032 5.85491 40.1491C5.78574 40.0177 5.38059 39.7214 4.95468 39.4905C1.8178 37.7902 1.02264 33.6423 3.34283 31.0826C3.8897 30.4793 5.01622 29.8013 5.80776 29.5991C6.70624 29.3696 8.14284 29.5265 9.03632 29.9517ZM30.748 29.6702C28.3457 30.5579 27.327 33.1947 28.5127 35.4567C28.9603 36.3109 29.3595 36.7 30.2962 37.195C30.8377 37.481 31.0972 37.5333 31.9983 37.5373C32.9869 37.5417 33.1185 37.5102 33.8745 37.0872C36.7602 35.4731 36.6515 31.2881 33.6869 29.8576C32.8704 29.4635 31.5375 29.3785 30.748 29.6702ZM59.0703 29.9517C60.1793 30.4794 60.9306 31.2221 61.4625 32.3167C62.7297 34.924 61.6694 38.0664 59.0419 39.4905C58.6159 39.7214 58.2108 40.0177 58.1416 40.1491C58.0606 40.3032 58.0159 43.765 58.0159 49.8897C58.0159 56.978 57.9773 59.5243 57.8638 59.9149C57.6608 60.6136 56.6246 61.6673 55.9375 61.8738C55.5564 61.9882 53.3062 62.0284 47.2739 62.0284H39.1251L39.1965 61.5514C39.2358 61.2892 39.5095 59.1882 39.8047 56.8828C40.2562 53.3566 40.3769 52.6698 40.5646 52.558C40.6873 52.4849 40.9431 52.2963 41.133 52.1388C41.4782 51.8526 41.4789 51.8526 46.4726 51.8526C52.246 51.8526 52.2814 51.8473 53.175 50.8365C53.4725 50.5001 53.7827 49.9978 53.8645 49.7203C54.0636 49.0446 54.0647 44.489 53.8661 43.8146C53.6855 43.2014 52.9058 42.2769 52.384 42.0571L51.997 41.894L52.0356 37.6197L52.0744 33.3453L52.4703 32.4956C52.9729 31.4167 53.6885 30.627 54.6219 30.1211C55.6072 29.5871 56.1463 29.4663 57.2966 29.522C58.0473 29.5584 58.4472 29.6552 59.0703 29.9517ZM32.7899 31.6744C34.0849 32.2247 34.3863 33.9061 33.3742 34.9353C32.5468 35.7767 31.4264 35.7828 30.6076 34.9503C29.0608 33.3772 30.7676 30.8152 32.7899 31.6744ZM19.3637 36.5803C19.5755 38.2842 19.7326 39.7277 19.7127 39.7883C19.635 40.0254 18.0159 38.3698 17.8001 37.8327C17.47 37.011 17.5186 36.0087 17.9285 35.1804C18.398 34.2315 18.8862 33.3888 18.9367 33.44C18.9597 33.4634 19.1518 34.8765 19.3637 36.5803ZM45.8907 34.8386C46.7941 36.6043 46.5902 37.8044 45.1607 39.1364C44.7108 39.5556 44.3214 39.8772 44.2955 39.8507C44.2696 39.8244 44.4191 38.3911 44.6277 36.6657C44.8363 34.9403 45.0088 33.4874 45.0111 33.4369C45.0186 33.2625 45.3742 33.8291 45.8907 34.8386ZM44.0064 43.7119V44.7295H31.9983H19.9901V43.7119V42.6944H31.9983H44.0064V43.7119ZM17.9888 44.926C17.9888 46.0456 18.0127 46.1646 18.2958 46.4524C18.5859 46.7474 18.6816 46.7647 20.029 46.7647H21.4552L21.5375 47.6869C21.5828 48.1941 21.6545 48.8809 21.6967 49.2132L21.7736 49.8174H17.1861H12.5987L12.2918 49.5052C11.9872 49.1956 11.9847 49.1733 11.9847 46.7647C11.9847 43.4684 11.7206 43.7119 15.2938 43.7119H17.9888V44.926ZM51.7048 44.0242C52.0093 44.3338 52.0118 44.3561 52.0118 46.7647C52.0118 49.1733 52.0093 49.1956 51.7048 49.5052L51.3978 49.8174H46.8104H42.223L42.2999 49.2132C42.342 48.8809 42.4137 48.1941 42.459 47.6869L42.5413 46.7647H43.9675C45.3149 46.7647 45.4106 46.7474 45.7007 46.4524C45.9839 46.1646 46.0078 46.0456 46.0078 44.926V43.7119H48.7027C51.3974 43.7119 51.3978 43.7119 51.7048 44.0242ZM40.498 47.1145C40.4948 47.3068 40.4201 48.0883 40.3322 48.851C40.1878 50.1038 40.1394 50.2664 39.831 50.5364L39.4893 50.835H31.9983H24.5072L24.1656 50.5364C23.8571 50.2664 23.8087 50.1038 23.6644 48.851C23.5764 48.0883 23.5018 47.3068 23.4985 47.1145L23.4925 46.7647H31.9983H40.504L40.498 47.1145ZM30.9976 57.4493V62.0284H28.9447H26.8918L26.818 61.5514C26.6792 60.6537 25.744 53.2681 25.744 53.069C25.744 52.895 26.0722 52.8702 28.3708 52.8702H30.9976V57.4493ZM38.2525 53.069C38.2525 53.2681 37.3174 60.6537 37.1785 61.5514L37.1047 62.0284H35.0518H32.9989V57.4493V52.8702H35.6257C37.9243 52.8702 38.2525 52.895 38.2525 53.069Z" fill="white"/>
</svg>
