<svg width="64" height="64" viewBox="0 0 64 64" fill="none" xmlns="http://www.w3.org/2000/svg">
<path d="M36.1291 10.3228H28.9033C23.2115 10.3228 18.5808 14.9535 18.5808 20.6453V28.2655C17.9459 28.9911 17.5485 29.9294 17.5485 30.9679C17.5485 33.2451 19.4004 35.0969 21.6775 35.0969H21.886C22.4837 38.0265 24.3304 40.5018 26.8388 41.9583V43.6079L20.0837 45.5382C15.5521 46.8327 12.3872 51.0288 12.3872 55.7421V62.9679C12.3872 63.5387 12.8497 64.0001 13.4195 64.0001H50.5807C51.1505 64.0001 51.613 63.5387 51.613 62.9679V55.7421C51.613 51.0288 48.4481 46.8327 43.9165 45.5382L37.1614 43.6079V41.9583C39.6698 40.5018 41.5175 38.0265 42.1142 35.0969H42.3227C44.5998 35.0969 46.4517 33.2451 46.4517 30.9679C46.4517 29.9305 46.0543 28.9922 45.4194 28.2655V19.612C45.4194 17.0902 43.5996 14.9844 41.2037 14.5385C40.7578 12.1426 38.652 10.3228 36.1291 10.3228ZM19.613 30.9679C19.613 29.8293 20.5389 28.9034 21.6775 28.9034V33.0324C20.5389 33.0324 19.613 32.1065 19.613 30.9679ZM36.2313 45.4907L38.9751 46.2752L36.1291 49.1212L33.7425 46.7346L36.2313 45.4907ZM30.8698 53.6776H33.1304L33.9552 61.9356H30.0429L30.8698 53.6776ZM33.4267 51.613H30.5735L29.8148 50.0967L32.0001 47.9114L34.1854 50.0967L33.4267 51.613ZM27.8711 49.1212L25.0251 46.2742L27.7689 45.4897L30.2576 46.7336L27.8711 49.1212ZM14.4517 55.7421C14.4517 51.9454 17.0004 48.5669 20.6504 47.5243L22.7542 46.9235L27.1413 51.3106C27.3343 51.5047 27.5975 51.613 27.8711 51.613C27.9949 51.613 28.1157 51.5841 28.2293 51.5418L28.8785 52.8404L27.9681 61.9356H20.6453V56.7743H18.5808V61.9356H14.4517V55.7421ZM49.5485 55.7421V61.9356H45.4194V56.7743H43.3549V61.9356H36.03L35.1216 52.8404L35.7709 51.5418C35.8845 51.5841 36.0053 51.613 36.1291 51.613C36.4027 51.613 36.6659 51.5047 36.8589 51.3106L41.246 46.9235L43.3498 47.5243C46.9998 48.5669 49.5485 51.9454 49.5485 55.7421ZM35.0969 43.7493L32.0001 45.2977L28.9033 43.7493V42.8791C29.8819 43.1867 30.9214 43.355 32.0001 43.355C33.0788 43.355 34.1183 43.1867 35.0969 42.8791V43.7493ZM40.2582 33.0324C40.2582 37.5857 36.5534 41.2905 32.0001 41.2905C27.4468 41.2905 23.742 37.5857 23.742 33.0324V27.8711H28.5059C31.7936 27.8711 34.7583 26.1658 36.412 23.42L40.2582 27.2662V33.0324ZM42.3227 33.0324V28.9034C43.4612 28.9034 44.3872 29.8293 44.3872 30.9679C44.3872 32.1065 43.4612 33.0324 42.3227 33.0324ZM43.3549 19.612V26.9855C43.0225 26.8987 42.6809 26.8389 42.3227 26.8389C42.3227 26.5643 42.2143 26.3021 42.0202 26.1091L36.8589 20.9478C36.6143 20.7031 36.2623 20.5989 35.9216 20.667C35.582 20.7362 35.2992 20.9726 35.1712 21.2946C34.0739 24.0353 31.4582 25.8066 28.5059 25.8066H22.7098C22.14 25.8066 21.6775 26.268 21.6775 26.8389C21.3193 26.8389 20.9777 26.8987 20.6453 26.9855V20.6453C20.6453 16.092 24.35 12.3873 28.9033 12.3873H36.1291C37.8365 12.3873 39.2259 13.7767 39.2259 15.484C39.2259 16.0549 39.6883 16.5163 40.2582 16.5163C41.9665 16.5163 43.3549 17.9057 43.3549 19.612Z" fill="white"/>
<path d="M19.8151 6.21419L15.202 5.29135L13.3439 0.64929C13.187 0.257032 12.8081 0 12.386 0C11.9638 0 11.5839 0.257032 11.427 0.64929L9.57099 5.29135L4.95886 6.21419C4.58519 6.28851 4.28377 6.56206 4.17332 6.92645C4.06286 7.29186 4.16196 7.68619 4.43138 7.95561L7.13796 10.6622L6.21409 15.2815C6.13357 15.6831 6.2977 16.0929 6.63112 16.3282C6.96454 16.5636 7.40635 16.5801 7.75731 16.3695L12.387 13.5907L17.0167 16.3685C17.1808 16.4676 17.3645 16.5161 17.5483 16.5161C17.7568 16.5161 17.9653 16.4521 18.1429 16.3272C18.4763 16.0919 18.6404 15.6821 18.5599 15.2805L17.636 10.6612L20.3426 7.95457C20.612 7.68516 20.7111 7.2898 20.6007 6.92541C20.4902 6.56206 20.1888 6.28851 19.8151 6.21419ZM15.7862 9.59277C15.5426 9.83638 15.4363 10.1863 15.5044 10.5249L16.0794 13.3977L12.9186 11.5014C12.7545 11.4044 12.5707 11.3548 12.387 11.3548C12.2032 11.3548 12.0195 11.4044 11.8554 11.5024L8.6946 13.3987L9.26957 10.5259C9.3377 10.1873 9.23138 9.83741 8.98776 9.5938L7.2546 7.85961L10.5248 7.20516C10.8665 7.13703 11.1514 6.90064 11.2804 6.57651L12.387 3.81109L13.4936 6.57651C13.6226 6.90064 13.9075 7.13703 14.2492 7.20516L17.5194 7.85961L15.7862 9.59277Z" fill="white"/>
<path d="M12.8878 34.9491C13.0519 35.0482 13.2356 35.0967 13.4194 35.0967C13.6279 35.0967 13.8364 35.0327 14.0139 34.9078C14.3474 34.6724 14.5115 34.2626 14.431 33.8611L13.5071 29.2417L16.2137 26.5351C16.4831 26.2657 16.5822 25.8704 16.4718 25.506C16.3613 25.1416 16.0599 24.868 15.6862 24.7937L11.073 23.8709L9.21498 19.2288C9.05808 18.8376 8.67924 18.5806 8.25705 18.5806C7.83486 18.5806 7.45498 18.8376 7.29808 19.2299L5.44208 23.8719L0.829958 24.7948C0.457313 24.8691 0.154861 25.1437 0.0444097 25.507C-0.0660418 25.8724 0.0330549 26.2668 0.302474 26.5362L3.00905 29.2428L2.08518 33.8621C2.00467 34.2637 2.1688 34.6735 2.50221 34.9088C2.83667 35.1442 3.27744 35.1607 3.62841 34.9501L8.25808 32.1713L12.8878 34.9491ZM4.56673 31.9782L5.1417 29.1055C5.20983 28.7669 5.1035 28.4169 4.85989 28.1733L3.12673 26.4402L6.39692 25.7857C6.7386 25.7176 7.0235 25.4812 7.15253 25.1571L8.25808 22.3917L9.36466 25.1571C9.49369 25.4812 9.7786 25.7176 10.1203 25.7857L13.3905 26.4402L11.6573 28.1733C11.4137 28.4169 11.3074 28.7669 11.3755 29.1055L11.9505 31.9782L8.78969 30.082C8.62557 29.9849 8.44182 29.9354 8.25808 29.9354C8.07434 29.9354 7.8906 29.9849 7.72647 30.083L4.56673 31.9782Z" fill="white"/>
<path d="M59.8267 6.92645C59.7163 6.56206 59.4149 6.28851 59.0412 6.21419L54.428 5.29135L52.5731 0.64929C52.4162 0.257032 52.0363 0 51.6141 0C51.1919 0 50.8131 0.257032 50.6562 0.64929L48.7981 5.29135L44.1849 6.21419C43.8123 6.28851 43.5098 6.56309 43.3994 6.92645C43.2889 7.29186 43.388 7.68619 43.6575 7.95561L46.364 10.6622L45.4402 15.2815C45.3596 15.6831 45.5238 16.0929 45.8572 16.3282C46.1916 16.5636 46.6324 16.5801 46.9834 16.3695L51.6131 13.5907L56.2427 16.3685C56.4069 16.4676 56.5906 16.5161 56.7743 16.5161C56.9829 16.5161 57.1914 16.4521 57.3689 16.3272C57.7023 16.0919 57.8665 15.6821 57.786 15.2805L56.8621 10.6612L59.5687 7.95457C59.8381 7.68619 59.9372 7.29083 59.8267 6.92645ZM55.0123 9.59277C54.7687 9.83638 54.6624 10.1863 54.7305 10.5249L55.3054 13.3977L52.1447 11.5014C51.9805 11.4044 51.7968 11.3548 51.6131 11.3548C51.4293 11.3548 51.2456 11.4044 51.0815 11.5024L47.9207 13.3987L48.4956 10.5259C48.5638 10.1873 48.4575 9.83741 48.2138 9.5938L46.4807 7.86064L49.7509 7.20619C50.0925 7.13806 50.3764 6.90167 50.5065 6.57754L51.6131 3.81109L52.7186 6.57651C52.8476 6.90064 53.1325 7.13703 53.4742 7.20516L56.7444 7.85961L55.0123 9.59277Z" fill="white"/>
<path d="M63.1701 24.7948L58.5569 23.8719L56.7009 19.2299C56.5451 18.8376 56.1652 18.5806 55.743 18.5806C55.3208 18.5806 54.942 18.8376 54.7851 19.2299L52.927 23.8719L48.3138 24.7948C47.9412 24.8691 47.6387 25.1437 47.5283 25.507C47.4178 25.8724 47.5169 26.2668 47.7864 26.5362L50.4929 29.2428L49.5691 33.8621C49.4886 34.2637 49.6527 34.6735 49.9861 34.9088C50.3195 35.1442 50.7613 35.1607 51.1123 34.9501L55.742 32.1713L60.3716 34.9491C60.5358 35.0482 60.7195 35.0967 60.9033 35.0967C61.1118 35.0967 61.3203 35.0327 61.4978 34.9078C61.8313 34.6724 61.9954 34.2626 61.9149 33.8611L60.991 29.2417L63.6976 26.5351C63.967 26.2657 64.0661 25.8704 63.9556 25.506C63.8452 25.1426 63.5438 24.8691 63.1701 24.7948ZM59.1412 28.1733C58.8976 28.4169 58.7913 28.7669 58.8594 29.1055L59.4344 31.9782L56.2736 30.082C56.1095 29.9849 55.9257 29.9354 55.742 29.9354C55.5582 29.9354 55.3745 29.9849 55.2104 30.083L52.0496 31.9793L52.6246 29.1065C52.6927 28.7679 52.5864 28.418 52.3427 28.1744L50.6096 26.4412L53.8798 25.7868C54.2215 25.7186 54.5053 25.4822 54.6354 25.1581L55.742 22.3917L56.8475 25.1571C56.9765 25.4812 57.2615 25.7176 57.6031 25.7857L60.8733 26.4402L59.1412 28.1733Z" fill="white"/>
</svg>
