<svg width="64" height="64" viewBox="0 0 64 64" fill="none" xmlns="http://www.w3.org/2000/svg">
<path d="M32.8868 45.2832L30.8408 45.5568C30.9244 46.1895 30.9678 46.8388 30.9678 47.484H33.0323C33.0323 46.7469 32.9838 46.0068 32.8868 45.2832Z" fill="white"/>
<path d="M60.9032 6.19355H59.871V3.09677C59.871 1.38942 58.4815 0 56.7742 0H54.7097C53.0023 0 51.6129 1.38942 51.6129 3.09677V6.19355H22.7097V3.09677C22.7097 1.38942 21.3203 0 19.6129 0H17.5484C15.841 0 14.4516 1.38942 14.4516 3.09677V6.19355H13.4194C11.712 6.19355 10.3226 7.58297 10.3226 9.29032V32.1837C4.27768 34.6395 0 40.5677 0 47.4839C0 56.5905 7.40955 64 16.5161 64C23.3486 64 29.3399 59.7688 31.8152 53.6774H60.9032C62.6106 53.6774 64 52.288 64 50.5806V9.29032C64 7.58297 62.6106 6.19355 60.9032 6.19355ZM53.6774 3.09677C53.6774 2.528 54.1409 2.06452 54.7097 2.06452H56.7742C57.343 2.06452 57.8064 2.528 57.8064 3.09677V11.3548C57.8064 11.9236 57.343 12.3871 56.7742 12.3871H54.7097C54.1409 12.3871 53.6774 11.9236 53.6774 11.3548V3.09677ZM16.5161 3.09677C16.5161 2.528 16.9796 2.06452 17.5484 2.06452H19.6129C20.1817 2.06452 20.6452 2.528 20.6452 3.09677V11.3548C20.6452 11.9236 20.1817 12.3871 19.6129 12.3871H17.5484C16.9796 12.3871 16.5161 11.9236 16.5161 11.3548V3.09677ZM30.8397 49.4121C29.889 56.5512 23.7316 61.9355 16.5161 61.9355C8.5471 61.9355 2.06452 55.4529 2.06452 47.4839C2.06452 39.5148 8.5471 33.0323 16.5161 33.0323C22.9966 33.0323 28.7267 37.3904 30.4485 43.6294L32.4387 43.0803C30.4702 35.9484 23.9226 30.9677 16.5161 30.9677C15.0885 30.9677 13.7094 31.169 12.3871 31.5117V9.29032C12.3871 8.72155 12.8506 8.25806 13.4194 8.25806H14.4516V11.3548C14.4516 13.0622 15.841 14.4516 17.5484 14.4516H19.6129C21.3203 14.4516 22.7097 13.0622 22.7097 11.3548V8.25806H51.6129V11.3548C51.6129 13.0622 53.0023 14.4516 54.7097 14.4516H56.7742C58.4815 14.4516 59.871 13.0622 59.871 11.3548V8.25806H60.9032C61.472 8.25806 61.9355 8.72155 61.9355 9.29032V18.5806H18.5806V20.6452H61.9355V41.1654L58.6467 36.5615C58.4795 36.3272 58.2225 36.1744 57.9375 36.1373C57.6547 36.1032 57.3657 36.1837 57.1448 36.3685L53.6764 39.2588V35.0968H59.8699V33.0323H52.6441C52.0743 33.0323 51.6119 33.4947 51.6119 34.0645V40.9786L38.8521 51.6129H32.4965C32.6596 50.9822 32.799 50.3432 32.8867 49.6846L30.8397 49.4121ZM57.6124 38.6663L61.3925 43.9577L44.1683 51.6129H42.0769L57.6124 38.6663ZM60.9032 51.6129H49.2511L61.9355 45.9757V50.5806C61.9355 51.1494 61.472 51.6129 60.9032 51.6129Z" fill="white"/>
<path d="M14.4517 18.5806H16.5162V20.6451H14.4517V18.5806Z" fill="white"/>
<path d="M22.7097 29.9353V23.7417C22.7097 23.1719 22.2473 22.7095 21.6775 22.7095H15.4839C14.9141 22.7095 14.4517 23.1719 14.4517 23.7417V29.9353C14.4517 30.5051 14.9141 30.9675 15.4839 30.9675H16.5162H21.6775C22.2473 30.9675 22.7097 30.5051 22.7097 29.9353ZM20.6452 28.903H16.5162V24.774H20.6452V28.903Z" fill="white"/>
<path d="M34.0644 30.9675C34.6342 30.9675 35.0967 30.5051 35.0967 29.9353V23.7417C35.0967 23.1719 34.6342 22.7095 34.0644 22.7095H27.8709C27.3011 22.7095 26.8386 23.1719 26.8386 23.7417V29.9353C26.8386 30.5051 27.3011 30.9675 27.8709 30.9675H34.0644ZM28.9031 24.774H33.0322V28.903H28.9031V24.774Z" fill="white"/>
<path d="M40.2581 30.9675H46.4516C47.0214 30.9675 47.4839 30.5051 47.4839 29.9353V23.7417C47.4839 23.1719 47.0214 22.7095 46.4516 22.7095H40.2581C39.6883 22.7095 39.2258 23.1719 39.2258 23.7417V29.9353C39.2258 30.5051 39.6883 30.9675 40.2581 30.9675ZM41.2903 24.774H45.4194V28.903H41.2903V24.774Z" fill="white"/>
<path d="M52.6451 30.9675H58.8386C59.4084 30.9675 59.8709 30.5051 59.8709 29.9353V23.7417C59.8709 23.1719 59.4084 22.7095 58.8386 22.7095H52.6451C52.0752 22.7095 51.6128 23.1719 51.6128 23.7417V29.9353C51.6128 30.5051 52.0752 30.9675 52.6451 30.9675ZM53.6773 24.774H57.8063V28.903H53.6773V24.774Z" fill="white"/>
<path d="M33.0321 41.2903H35.0967V34.0645C35.0967 33.4947 34.6342 33.0322 34.0644 33.0322H27.8708V35.0967H33.0321V41.2903Z" fill="white"/>
<path d="M40.2581 41.2903H46.4516C47.0214 41.2903 47.4839 40.8278 47.4839 40.258V34.0645C47.4839 33.4947 47.0214 33.0322 46.4516 33.0322H40.2581C39.6883 33.0322 39.2258 33.4947 39.2258 34.0645V40.258C39.2258 40.8278 39.6883 41.2903 40.2581 41.2903ZM41.2903 35.0967H45.4194V39.2258H41.2903V35.0967Z" fill="white"/>
<path d="M17.5483 37.2655V35.0967H15.4838V37.2655C13.1313 37.7455 11.3547 39.8296 11.3547 42.3225C11.3547 45.1684 13.6701 47.4838 16.516 47.4838C18.2234 47.4838 19.6128 48.8732 19.6128 50.5806C19.6128 52.2879 18.2234 53.6773 16.516 53.6773C14.8087 53.6773 13.4193 52.2879 13.4193 50.5806V49.5483H11.3547V50.5806C11.3547 53.0724 13.1313 55.1576 15.4838 55.6376V57.8064H17.5483V55.6376C19.9008 55.1576 21.6773 53.0735 21.6773 50.5806C21.6773 47.7346 19.362 45.4193 16.516 45.4193C14.8087 45.4193 13.4193 44.0298 13.4193 42.3225C13.4193 40.6151 14.8087 39.2257 16.516 39.2257C18.2234 39.2257 19.6128 40.6151 19.6128 42.3225V43.3547H21.6773V42.3225C21.6773 39.8306 19.9008 37.7455 17.5483 37.2655Z" fill="white"/>
</svg>
