<svg width="64" height="64" viewBox="0 0 64 64" fill="none" xmlns="http://www.w3.org/2000/svg">
<g clip-path="url(#clip0_27_418)">
<path d="M63.8034 20.0829C52.7249 5.87795 53.1974 6.23382 52.6059 6.17582L35.2641 3.83996C30.8926 3.25108 27.9233 4.01646 26.407 4.15358C25.8981 4.22208 25.5413 4.6902 25.6096 5.19908C25.6782 5.70795 26.1469 6.06557 26.6551 5.99645C28.1929 5.85545 30.9508 5.13558 35.0159 5.68282L46.9246 7.28682C46.0333 7.46844 32.8916 10.1464 31.9997 10.3282L17.0753 7.28682L22.234 6.59195C22.7429 6.52345 23.0998 6.05532 23.0314 5.54645C22.9629 5.03745 22.4938 4.68045 21.9859 4.74908L11.3947 6.17557C11.3932 6.1757 11.3917 6.17595 11.3902 6.1762L11.3762 6.17807C11.362 6.18007 11.3481 6.1832 11.334 6.18582C11.3248 6.18757 11.3155 6.18882 11.3065 6.19082C11.2988 6.19245 11.2912 6.19407 11.2837 6.19582C11.2731 6.19845 11.2626 6.20157 11.2521 6.20445C11.2358 6.20895 11.2196 6.21332 11.2036 6.2187C11.197 6.22095 11.1907 6.2237 11.1841 6.22607C11.1812 6.22707 11.1783 6.2282 11.1756 6.22932C11.1663 6.23282 11.1567 6.23607 11.1476 6.2397C11.1308 6.24657 11.1146 6.2542 11.0983 6.26207C11.0912 6.26545 11.0842 6.26857 11.0772 6.27207C11.0693 6.27607 11.0617 6.27995 11.0541 6.28407C11.0467 6.28807 11.0397 6.29257 11.0323 6.29695C10.6286 6.5322 10.8257 6.54882 0.196625 20.0828C-0.0243746 20.3663 -0.0623744 20.7516 0.0993749 21.0728C0.473623 21.8153 -0.521747 20.3496 19.9968 47.5854C20.306 47.9954 20.889 48.0769 21.299 47.7677C21.7089 47.4584 21.7904 46.8754 21.4813 46.4654L3.45899 22.5785L18.0217 27.1655C18.3709 28.0866 29.0378 56.2211 29.2356 56.7431L24.104 49.9418C23.7948 49.5318 23.2119 49.4503 22.8018 49.7595C22.3918 50.0688 22.3104 50.6518 22.6195 51.0618C27.9929 58.1821 28.5465 58.92 28.5848 58.9631C29.2636 59.7282 30.2025 60.2121 31.1005 60.3636C31.2334 60.3862 32.7912 60.3857 32.9215 60.3604C34.0537 60.1405 35.0101 59.5009 35.4616 58.9062L53.6108 34.851C53.9199 34.441 53.8384 33.858 53.4285 33.5487C53.0183 33.2397 52.4357 33.3212 52.1263 33.731L34.7639 56.7436C35.3185 55.2808 45.5704 28.2406 45.9781 27.1656L60.5409 22.5786L54.7399 30.2671C54.4308 30.6771 54.5122 31.2601 54.9222 31.5693C55.3323 31.8786 55.9152 31.7971 56.2244 31.3871C64.0121 21.0554 63.5925 21.6816 63.8999 21.0743C64.0624 20.7529 64.0247 20.3668 63.8034 20.0829ZM31.9999 12.6875L43.2172 25.4844H20.7827L31.9999 12.6875ZM2.39124 20.2926L11.2118 8.98131L17.1919 24.9549L2.39124 20.2926ZM12.9597 8.34581C14.8007 8.72094 28.0014 11.4112 30.2453 11.8684L19.0568 24.6322L12.9597 8.34581ZM32.1026 58.518H31.8974L20.078 27.3437H43.922L32.1026 58.518ZM44.943 24.6321L33.7545 11.8684C35.2429 11.5651 48.7514 8.81231 51.04 8.34581L44.943 24.6321ZM46.8078 24.9546L52.7879 8.98106L61.6086 20.2925L46.8078 24.9546Z" fill="white"/>
</g>
<defs>
<clipPath id="clip0_27_418">
<rect width="64" height="64" fill="white"/>
</clipPath>
</defs>
</svg>
