<svg width="64" height="64" viewBox="0 0 64 64" fill="none" xmlns="http://www.w3.org/2000/svg">
<path d="M20.6448 53.6772H22.7093V55.7418H20.6448V53.6772Z" fill="white"/>
<path d="M20.6448 57.8066H22.7093V59.8712H20.6448V57.8066Z" fill="white"/>
<path d="M44.4315 33.0323C45.3667 33.0323 46.2472 32.6204 46.8449 31.9019L51.0648 26.8387H58.8387C61.6846 26.8387 64 24.5234 64 21.6774V11.3548C64 8.5089 61.6846 6.19355 58.8387 6.19355H53.6774C53.6774 2.77781 50.8996 0 47.4839 0C44.0681 0 41.2903 2.77781 41.2903 6.19355H36.129C33.2831 6.19355 30.9677 8.5089 30.9677 11.3548V17.0539C29.0034 15.4292 26.4846 14.4516 23.7419 14.4516H22.7097C19.2867 14.4516 16.0103 16.0258 13.8674 18.6828C10.6003 19.4715 8.25806 22.4217 8.25806 25.8064C8.25806 29.3698 9.78581 32.7102 12.4428 35.0648C12.7886 38.2751 14.7778 40.992 17.5484 42.3742V44.6018L10.3453 46.2968C4.25394 47.7295 0 53.1014 0 59.359V64H43.3548V59.359C43.3548 57.3368 42.9048 55.4106 42.0986 53.6774H45.9675L50.1874 58.7396C50.785 59.4591 51.6655 59.871 52.6008 59.871C54.3329 59.871 55.7419 58.4619 55.7419 56.7298V53.6774H58.8387C61.6846 53.6774 64 51.3621 64 48.5161V40.2581C64 37.4121 61.6846 35.0968 58.8387 35.0968H38.1935C35.3476 35.0968 33.0323 37.4121 33.0323 40.2581V46.303C33.024 46.3009 33.0168 46.2978 33.0095 46.2968L25.8064 44.6018V42.3742C28.577 40.992 30.5662 38.2741 30.912 35.0648C33.3099 32.9394 34.7768 30.0108 35.04 26.8387H41.2903V29.8911C41.2903 31.6232 42.6994 33.0323 44.4315 33.0323ZM47.4839 2.06452C49.761 2.06452 51.6129 3.91639 51.6129 6.19355C51.6129 8.47071 49.761 10.3226 47.4839 10.3226C45.2067 10.3226 43.3548 8.47071 43.3548 6.19355C43.3548 3.91639 45.2067 2.06452 47.4839 2.06452ZM18.1605 46.5786L20.3871 49.5484L17.983 52.7535L15.904 47.1092L18.1605 46.5786ZM21.6774 51.2681L24.5223 55.0606L21.9902 61.9355H21.3657L18.8335 55.0606L21.6774 51.2681ZM2.06452 59.359C2.06452 54.0635 5.664 49.5185 10.8191 48.3055L13.8777 47.5861L19.1649 61.9355H10.3226V55.7419H8.25806V61.9355H2.06452V59.359ZM35.0968 40.2581C35.0968 38.5507 36.4862 37.1613 38.1935 37.1613H58.8387C60.5461 37.1613 61.9355 38.5507 61.9355 40.2581V48.5161C61.9355 50.2235 60.5461 51.6129 58.8387 51.6129H53.6774V56.7298C53.6774 57.3234 53.1943 57.8064 52.6008 57.8064C52.2797 57.8064 51.9783 57.665 51.7739 57.4194L46.9357 51.6129H40.8981C39.4643 49.5814 37.473 47.9566 35.0968 46.9729V40.2581ZM41.2903 59.359V61.9355H35.0968V55.7419H33.0323V61.9355H24.1899L29.4761 47.5861L32.5347 48.3055C37.6908 49.5195 41.2903 54.0645 41.2903 59.359ZM27.4519 47.1102L25.3729 52.7546L22.9677 49.5484L25.1943 46.5786L27.4519 47.1102ZM23.7419 45.0756L21.6774 47.8286L19.6129 45.0756V43.1154C20.2777 43.2671 20.9672 43.3548 21.6774 43.3548C22.3876 43.3548 23.0772 43.2671 23.7419 43.1154V45.0756ZM28.9032 34.0645C28.9032 38.049 25.6609 41.2903 21.6774 41.2903C17.6939 41.2903 14.4516 38.049 14.4516 34.0645V29.216C14.4516 28.4738 15.0545 27.871 15.7966 27.871C16.063 27.871 16.321 27.9494 16.543 28.097L19.3001 29.9355H25.8064C27.5138 29.9355 28.9032 31.3249 28.9032 33.0323V34.0645ZM30.8759 32.1197C30.4413 29.7094 28.3396 27.871 25.8064 27.871H19.9257L17.6877 26.3794C17.1262 26.0046 16.4717 25.8064 15.7966 25.8064C13.9159 25.8064 12.3871 27.3352 12.3871 29.216V31.9866C11.0617 30.2194 10.3226 28.0661 10.3226 25.8064C10.3226 23.3063 12.1022 21.1355 14.5548 20.6452L15.0421 20.5471L15.2774 20.2323C17.023 17.9055 19.8018 16.5161 22.7097 16.5161H23.7419C28.865 16.5161 33.0323 20.6844 33.0323 25.8064C33.0323 28.1218 32.2632 30.3288 30.8759 32.1197ZM35.0441 24.7742C34.8604 22.7489 34.1419 20.8774 33.0323 19.2981V11.3548C33.0323 9.64748 34.4217 8.25806 36.129 8.25806H41.6516C42.048 9.37497 42.753 10.3432 43.6686 11.0627C39.8617 12.5832 37.1613 16.3014 37.1613 20.6452V22.7097H57.8064V20.6452C57.8064 16.3014 55.1061 12.5832 51.2991 11.0627C52.2147 10.3432 52.9197 9.37497 53.3161 8.25806H58.8387C60.5461 8.25806 61.9355 9.64748 61.9355 11.3548V21.6774C61.9355 23.3848 60.5461 24.7742 58.8387 24.7742H50.0965L45.2573 30.5806C45.0539 30.8263 44.7525 30.9677 44.4315 30.9677C43.8379 30.9677 43.3548 30.4846 43.3548 29.8911V24.7742H35.0441ZM47.4839 12.3871C52.0372 12.3871 55.7419 16.0919 55.7419 20.6452H39.2258C39.2258 16.0919 42.9306 12.3871 47.4839 12.3871Z" fill="white"/>
<path d="M37.1606 39.2256H59.8703V41.2901H37.1606V39.2256Z" fill="white"/>
<path d="M37.1606 43.355H59.8703V45.4195H37.1606V43.355Z" fill="white"/>
<path d="M41.2898 47.4839H55.7414V49.5484H41.2898V47.4839Z" fill="white"/>
<path d="M57.8057 47.4839H59.8702V49.5484H57.8057V47.4839Z" fill="white"/>
</svg>
