<svg width="64" height="64" viewBox="0 0 64 64" fill="none" xmlns="http://www.w3.org/2000/svg">
<g clip-path="url(#clip0_27_374)">
<path d="M42.6666 5.3335H21.3333V7.46683H42.6666V5.3335Z" fill="white"/>
<path d="M52.8 40.0002C52.8 37.9418 51.125 36.2668 49.0667 36.2668H46.9334V21.3335H44.8V36.2668H42.1334C40.075 36.2668 38.4 37.9419 38.4 40.0002C38.4 41.0452 38.8344 41.9884 39.5288 42.6668C38.8344 43.3452 38.4 44.2884 38.4 45.3335C38.4 46.0526 38.614 46.7188 38.9679 47.2892C37.6919 47.8835 36.8 49.1692 36.8 50.6668C36.8 51.2416 36.9415 51.78 37.1746 52.2668H28.8C28.8 49.0054 27.1656 46.119 24.673 44.3835C27.0834 43.4647 28.8 41.1294 28.8 38.4002C28.8 37.8111 28.323 37.3335 27.7334 37.3335H19.2V26.6668H17.0667V37.3335C15.3022 37.3335 13.8667 38.769 13.8667 40.5335V64.0002H16V40.5335C16 39.9455 16.4782 39.4668 17.0667 39.4668H26.5312C26.0572 41.3048 24.3843 42.6668 22.4 42.6668H19.2C18.6104 42.6668 18.1334 43.1444 18.1334 43.7335C18.1334 44.3226 18.6104 44.8002 19.2 44.8002C23.3167 44.8002 26.6667 48.1496 26.6667 52.2668V53.3335C26.6667 53.9226 27.1438 54.4002 27.7334 54.4002H33.9746C33.7415 54.887 33.6 55.4254 33.6 56.0002C33.6 58.0586 35.2751 59.7335 37.3334 59.7335V64.0002H39.4667V59.7335H43.7334H44.2667C46.3251 59.7335 48 58.0584 48 56.0002C48 55.4192 47.8551 54.8758 47.6172 54.385C49.6046 54.3039 51.2 52.6736 51.2 50.6668C51.2 49.9478 50.986 49.2815 50.6322 48.7111C51.9082 48.1168 52.8 46.8311 52.8 45.3335C52.8 44.2884 52.3656 43.3452 51.6712 42.6668C52.3656 41.9884 52.8 41.0452 52.8 40.0002ZM44.2667 57.6002H43.7334H38.4H37.3334C36.4511 57.6002 35.7334 56.8824 35.7334 56.0002C35.7334 55.1179 36.4511 54.4002 37.3334 54.4002H40.5334H44.2667C45.149 54.4002 45.8667 55.1179 45.8667 56.0002C45.8667 56.8824 45.149 57.6002 44.2667 57.6002ZM47.4667 52.2668H44.2667H40.5334C39.6511 52.2668 38.9334 51.5491 38.9334 50.6668C38.9334 49.7846 39.6511 49.0668 40.5334 49.0668H42.1334H47.4667C48.349 49.0668 49.0667 49.7846 49.0667 50.6668C49.0667 51.5491 48.349 52.2668 47.4667 52.2668ZM49.0667 46.9335H47.4667H42.1334C41.2511 46.9335 40.5334 46.2158 40.5334 45.3335C40.5334 44.4512 41.2511 43.7335 42.1334 43.7335H49.0667C49.949 43.7335 50.6667 44.4512 50.6667 45.3335C50.6667 46.2158 49.949 46.9335 49.0667 46.9335ZM49.0667 41.6002H42.1334C41.2511 41.6002 40.5334 40.8824 40.5334 40.0002C40.5334 39.1179 41.2511 38.4002 42.1334 38.4002H49.0667C49.949 38.4002 50.6667 39.1179 50.6667 40.0002C50.6667 40.8824 49.949 41.6002 49.0667 41.6002Z" fill="white"/>
<path d="M15.9969 13.5772C15.975 13.2709 15.8229 12.9886 15.5781 12.8032L14.4677 11.9614C14.2021 10.6168 13.0218 9.6001 11.6104 9.6001C10.0177 9.6001 8.71862 10.8949 8.69782 12.4944C7.84568 12.3454 7.03115 12.0184 6.30195 11.5272L5.93008 11.2761C5.60408 11.0558 5.18115 11.0318 4.83222 11.2182C4.48435 11.4032 4.26662 11.7657 4.26662 12.16V13.035C4.26662 14.3205 4.65408 15.5465 5.37288 16.5762L4.57502 17.3836C4.27195 17.6893 4.18328 18.1472 4.34902 18.5445C4.51448 18.9413 4.90302 19.2001 5.33328 19.2001H10.5021C12.5635 19.2001 14.2677 17.6288 14.4969 15.6121L15.6917 14.4033C15.9073 14.185 16.0188 13.884 15.9969 13.5772ZM12.6978 14.397C12.5 14.5965 12.3894 14.8664 12.3894 15.147C12.3894 16.2054 11.5425 17.0668 10.502 17.0668H7.78848C7.95728 16.6782 7.88435 16.2094 7.56875 15.8902C7.07088 15.3861 6.71462 14.7517 6.53435 14.0678C7.55208 14.497 8.64582 14.72 9.76462 14.72C10.3542 14.72 10.8313 14.2424 10.8313 13.6533V12.5334C10.8313 12.0922 11.1813 11.7334 11.6105 11.7334C12.0397 11.7334 12.3897 12.0922 12.3897 12.5334C12.3897 12.8673 12.5459 13.1818 12.8116 13.3834L13.32 13.7684L12.6978 14.397Z" fill="white"/>
<path d="M35.2 18.1333V16H32C31.4104 16 30.9334 16.4776 30.9334 17.0667V20.2667H28.8V22.4H30.9334V26.6667H33.0667V22.4H35.2V20.2667H33.0667V18.1333H35.2Z" fill="white"/>
<path d="M38.3999 11.7334H25.5999C23.8354 11.7334 22.3999 13.1689 22.3999 14.9334V27.7334C22.3999 29.4979 23.8354 30.9334 25.5999 30.9334H38.3999C40.1644 30.9334 41.5999 29.4979 41.5999 27.7334V14.9334C41.5999 13.1689 40.1644 11.7334 38.3999 11.7334ZM39.4666 27.7334C39.4666 28.3214 38.9884 28.8001 38.3999 28.8001H25.5999C25.0114 28.8001 24.5332 28.3214 24.5332 27.7334V14.9334C24.5332 14.3454 25.0114 13.8667 25.5999 13.8667H38.3999C38.9884 13.8667 39.4666 14.3454 39.4666 14.9334V27.7334Z" fill="white"/>
<path d="M16 5.3335H3.2C1.43547 5.3335 0 6.76896 0 8.5335V21.3335C0 23.098 1.43547 24.5335 3.2 24.5335H16C17.7645 24.5335 19.2 23.098 19.2 21.3335V8.5335C19.2 6.76896 17.7645 5.3335 16 5.3335ZM17.0667 21.3335C17.0667 21.9215 16.5885 22.4002 16 22.4002H3.2C2.61147 22.4002 2.13333 21.9215 2.13333 21.3335V8.5335C2.13333 7.9455 2.61147 7.46683 3.2 7.46683H16C16.5885 7.46683 17.0667 7.9455 17.0667 8.5335V21.3335Z" fill="white"/>
<path d="M60.8 0H48C46.2355 0 44.8 1.43547 44.8 3.2V16C44.8 17.7645 46.2355 19.2 48 19.2H60.8C62.5646 19.2 64 17.7645 64 16V3.2C64 1.43547 62.5646 0 60.8 0ZM61.8667 16C61.8667 16.588 61.3886 17.0667 60.8 17.0667H48C47.4115 17.0667 46.9334 16.588 46.9334 16V10.6667H49.1746C49.6702 13.0979 51.8247 14.9333 54.4 14.9333C56.9754 14.9333 59.1299 13.0979 59.6255 10.6667H61.8667V16ZM51.2 9.6C51.2 7.83547 52.6355 6.4 54.4 6.4C56.1646 6.4 57.6 7.83547 57.6 9.6C57.6 11.3645 56.1646 12.8 54.4 12.8C52.6355 12.8 51.2 11.3645 51.2 9.6ZM61.8667 8.53333H59.6255C59.1299 6.10213 56.9754 4.26667 54.4 4.26667C51.8247 4.26667 49.6702 6.10213 49.1746 8.53333H46.9334V3.2C46.9334 2.612 47.4115 2.13333 48 2.13333H60.8C61.3886 2.13333 61.8667 2.612 61.8667 3.2V8.53333Z" fill="white"/>
<path d="M33.0667 43.7334H30.9333V45.8667H33.0667V43.7334Z" fill="white"/>
</g>
<defs>
<clipPath id="clip0_27_374">
<rect width="64" height="64" fill="white"/>
</clipPath>
</defs>
</svg>
