<svg width="64" height="64" viewBox="0 0 64 64" fill="none" xmlns="http://www.w3.org/2000/svg">
<g clip-path="url(#clip0_27_422)">
<path d="M32 11.2511C43.4064 11.2511 52.6863 20.531 52.6863 31.9374C52.6863 32.2709 52.6783 32.6087 52.6624 32.9416L54.5388 33.0314C54.5562 32.6688 54.565 32.3008 54.565 31.9375C54.565 19.4951 44.4425 9.37256 32 9.37256C31.5805 9.37256 31.1555 9.38433 30.7371 9.40738L30.8406 11.2832C31.2248 11.2619 31.6148 11.2511 32 11.2511Z" fill="white"/>
<path d="M11.6252 28.342L9.77479 28.0176C9.66157 28.6636 9.57565 29.3233 9.51929 29.978L11.3911 30.139C11.4427 29.5387 11.5214 28.934 11.6252 28.342Z" fill="white"/>
<path d="M54.6161 34.6808C51.0396 37.8712 47.4556 40.5753 42.509 41.1491C37.1462 41.771 31.7004 39.8688 27.8845 36.0529C24.0737 32.2421 22.1567 26.7867 22.7883 21.4283C23.372 16.4763 26.0618 12.9024 29.2564 9.32129C25.518 10.3057 21.9508 11.3503 18.7663 13.659C14.6079 16.6738 11.5452 21.0955 10.2093 26.057L12.0234 26.5454C13.681 20.389 18.1034 15.3746 23.8764 12.9078C18.9635 20.6008 20.1133 30.9459 26.5581 37.3793C33.0045 43.8143 43.3291 44.9807 51.0321 40.0595C47.1216 49.2342 36.8363 54.3859 27.1455 52.0462C17.977 49.8327 11.3137 41.3674 11.3137 31.9372H9.43506C9.43506 44.2232 19.7191 54.503 32 54.502C38.028 54.5015 43.9064 52.0271 48.1259 47.7246C51.7506 44.0285 53.3313 39.5599 54.6161 34.6808Z" fill="white"/>
<path d="M56.4229 30.998H63.9375V32.8767H56.4229V30.998Z" fill="white"/>
<path d="M48.5989 14.0078L53.9118 8.69494L55.2401 10.0232L49.9272 15.3361L48.5989 14.0078Z" fill="white"/>
<path d="M48.5947 49.6719L49.923 48.3436L55.2359 53.6564L53.9076 54.9848L48.5947 49.6719Z" fill="white"/>
<path d="M31.0608 0H32.9395V7.51468H31.0608V0Z" fill="white"/>
<path d="M31.0608 56.4854H32.9395V64H31.0608V56.4854Z" fill="white"/>
<path d="M7.64015 54.5439H5.76148V56.4226H3.88281V58.3013H5.76148V60.18H7.64015V58.3013H9.51882V56.4226H7.64015V54.5439Z" fill="white"/>
<path d="M11.3975 9.39333H13.2761V7.51466H15.1548V5.63599H13.2761V3.75732H11.3975V5.63599H9.5188V7.51466H11.3975V9.39333Z" fill="white"/>
<path d="M5.69875 32.8765V30.9978H3.82008V29.1191H1.94141V30.9978H0.0627441V32.8765H1.94141V34.7551H3.82008V32.8765H5.69875Z" fill="white"/>
<path d="M9.43506 50.7241H11.3137V52.6028H9.43506V50.7241Z" fill="white"/>
<path d="M3.88281 11.3223H5.76148V13.2009H3.88281V11.3223Z" fill="white"/>
</g>
<defs>
<clipPath id="clip0_27_422">
<rect width="64" height="64" fill="white"/>
</clipPath>
</defs>
</svg>
