<svg width="89" height="71" viewBox="0 0 89 71" fill="none" xmlns="http://www.w3.org/2000/svg">
<path opacity="0.1" fill-rule="evenodd" clip-rule="evenodd" d="M13.1852 0H26.3704C33.6524 0 39.5556 6.35755 39.5556 14.2V39.2481C39.5556 41.4526 39.0789 43.6267 38.1639 45.5983L28.815 65.7346C27.3168 68.9616 24.2541 71 20.9039 71C14.3288 71 10.0523 63.5478 12.9928 57.2146L19.7778 42.6H13.1852C5.9032 42.6 0 36.2427 0 28.4V14.2C0 6.35755 5.9032 0 13.1852 0ZM62.6296 0H75.8148C83.097 0 89 6.35755 89 14.2V39.2481C89 41.4526 88.5234 43.6267 87.6083 45.5983L78.2594 65.7346C76.7615 68.9616 73.6986 71 70.3482 71C63.7734 71 59.4968 63.5478 62.4371 57.2146L69.2222 42.6H62.6296C55.3475 42.6 49.4444 36.2427 49.4444 28.4V14.2C49.4444 6.35755 55.3475 0 62.6296 0Z" fill="#2C66C7"/>
</svg>
