<svg width="15" height="14" viewBox="0 0 15 14" fill="none" xmlns="http://www.w3.org/2000/svg">
<path d="M8.31605 0.492132C8.1655 0.191385 7.84735 0 7.49796 0C7.14857 0 6.83326 0.191385 6.67987 0.492132L4.85336 4.10931L0.774248 4.68893C0.433375 4.73814 0.149315 4.9678 0.0442125 5.28222C-0.0608899 5.59664 0.0243281 5.94387 0.26862 6.17626L3.22853 8.99509L2.52974 12.9786C2.47293 13.3067 2.61496 13.6403 2.89618 13.8344C3.1774 14.0285 3.54952 14.0531 3.8563 13.8973L7.5008 12.0244L11.1453 13.8973C11.4521 14.0531 11.8242 14.0312 12.1054 13.8344C12.3866 13.6375 12.5287 13.3067 12.4719 12.9786L11.7702 8.99509L14.7301 6.17626C14.9744 5.94387 15.0625 5.59664 14.9545 5.28222C14.8466 4.9678 14.5654 4.73814 14.2245 4.68893L10.1426 4.10931L8.31605 0.492132Z" fill="#2AD6C3"/>
</svg>
